<svg width="362" height="727" viewBox="0 0 362 727" fill="none" xmlns="http://www.w3.org/2000/svg">
<rect x="10" y="12" width="344" height="715" rx="39" fill="white"/>
<path d="M10 51C10 29.4609 27.4609 12 49 12H315C336.539 12 354 29.4609 354 51V688C354 709.539 336.539 727 315 727H49C27.4609 727 10 709.539 10 688V51Z" fill="white"/>
<g style="mix-blend-mode:darken">
<path d="M206 39.4997C206 113.23 146.902 173 74 173C1.09841 173 0 120.73 0 46.9999C15 -15.0001 27 11.9999 87 2.99989C162 22 206 -34.2303 206 39.4997Z" fill="#FF835D"/>
</g>
<g style="mix-blend-mode:darken">
<path d="M362 45C362 106.58 356.632 124 294.5 124C232.368 124 182 74.0801 182 12.5003C182 -2.99999 232.368 1.99999 294.5 1.99999C356.632 1.99999 353 12.5003 362 45Z" fill="#95E8E4"/>
</g>
<ellipse cx="286" cy="578.5" rx="44" ry="42.5" fill="#FF835D"/>
<circle cx="242" cy="607" r="21" fill="#95E8E4"/>
</svg>
