<svg width="19" height="16" viewBox="0 0 19 16" fill="none" xmlns="http://www.w3.org/2000/svg">
<path d="M9.2 0C8.31719 0 7.6 0.645469 7.6 1.44C7.6 2.10938 8.1125 2.66766 8.8 2.82937V3.96H5.2125C3.44063 3.96 2 5.25656 2 6.85125V8.28H0V12.6H2V15.84H16.4V12.6H18.4V8.28H16.4V6.85125C16.4 5.25656 14.9594 3.96 13.1875 3.96H9.6V2.82937C10.2891 2.66766 10.8 2.10938 10.8 1.44C10.8 0.645469 10.0828 0 9.2 0ZM9.2 0.72C9.64062 0.72 10 1.04344 10 1.44C10 1.83656 9.64062 2.16 9.2 2.16C8.75938 2.16 8.4 1.83656 8.4 1.44C8.4 1.04344 8.75938 0.72 9.2 0.72ZM5.2125 4.68H13.1875C14.5172 4.68 15.6 5.65453 15.6 6.85125V15.12H13.2V12.24H5.2V15.12H2.8V6.85125C2.8 5.65453 3.88281 4.68 5.2125 4.68ZM6.6 6.84C5.60781 6.84 4.8 7.56703 4.8 8.46C4.8 9.35297 5.60781 10.08 6.6 10.08C7.59219 10.08 8.4 9.35297 8.4 8.46C8.4 7.56703 7.59219 6.84 6.6 6.84ZM11.8 6.84C10.8078 6.84 10 7.56703 10 8.46C10 9.35297 10.8078 10.08 11.8 10.08C12.7922 10.08 13.6 9.35297 13.6 8.46C13.6 7.56703 12.7922 6.84 11.8 6.84ZM6.6 7.56C7.15156 7.56 7.6 7.96359 7.6 8.46C7.6 8.95641 7.15156 9.36 6.6 9.36C6.04844 9.36 5.6 8.95641 5.6 8.46C5.6 7.96359 6.04844 7.56 6.6 7.56ZM11.8 7.56C12.3516 7.56 12.8 7.96359 12.8 8.46C12.8 8.95641 12.3516 9.36 11.8 9.36C11.2484 9.36 10.8 8.95641 10.8 8.46C10.8 7.96359 11.2484 7.56 11.8 7.56ZM0.8 9H2V11.88H0.8V9ZM16.4 9H17.6V11.88H16.4V9ZM6 12.96H7.6V15.12H6V12.96ZM8.4 12.96H10V15.12H8.4V12.96ZM10.8 12.96H12.4V15.12H10.8V12.96Z" fill="#005551"/>
</svg>
