<svg width="22" height="30" viewBox="0 0 22 30" fill="none" xmlns="http://www.w3.org/2000/svg">
<path d="M10.8687 0.875C5.35819 0.875 0.875 5.25741 0.875 10.644C0.875 12.464 1.39074 14.2401 2.36678 15.781L10.2999 28.2776C10.4518 28.517 10.7196 28.6625 11.0075 28.6625H11.0141C11.3045 28.6603 11.5728 28.5103 11.722 28.2667L14.9317 23.0282C15.1749 22.6312 15.043 22.1118 14.6398 21.8789C14.2511 21.6545 13.7545 21.7807 13.52 22.1633L10.9949 26.2846L3.78246 14.9232C2.97002 13.6406 2.52951 12.1609 2.52951 10.644C2.52951 6.15518 6.27662 2.49233 10.8687 2.49233C15.4609 2.49233 19.2024 6.15518 19.2024 10.644C19.2024 12.116 18.791 13.5578 18.0235 14.8132L15.9186 18.2486C15.6754 18.6456 15.8073 19.165 16.2105 19.3978C16.5991 19.6223 17.0958 19.4961 17.3302 19.1135L19.4529 15.6491C20.3751 14.1407 20.8625 12.41 20.8625 10.644C20.8625 5.25741 16.3793 0.875 10.8687 0.875Z" fill="white"/>
<path fill-rule="evenodd" clip-rule="evenodd" d="M10.8687 5.2625C8.21552 5.2625 6.05694 7.55877 6.05694 10.3812C6.05694 13.1857 8.18039 15.5 10.8687 15.5C13.5903 15.5 15.6806 13.1549 15.6806 10.3812C15.6806 7.55877 13.522 5.2625 10.8687 5.2625ZM10.8687 13.8051C9.09069 13.8051 7.65019 12.2676 7.65019 10.3812C7.65019 8.49961 9.09993 6.95735 10.8687 6.95735C12.6376 6.95735 14.082 8.49961 14.082 10.3812C14.082 12.2401 12.675 13.8051 10.8687 13.8051Z" fill="white"/>
<path d="M10.8687 0.875C5.35819 0.875 0.875 5.25741 0.875 10.644C0.875 12.464 1.39074 14.2401 2.36678 15.781L10.2999 28.2776C10.4518 28.517 10.7196 28.6625 11.0075 28.6625H11.0141C11.3045 28.6603 11.5728 28.5103 11.722 28.2667L14.9317 23.0282C15.1749 22.6312 15.043 22.1118 14.6398 21.8789C14.2511 21.6545 13.7545 21.7807 13.52 22.1633L10.9949 26.2846L3.78246 14.9232C2.97002 13.6406 2.52951 12.1609 2.52951 10.644C2.52951 6.15518 6.27662 2.49233 10.8687 2.49233C15.4609 2.49233 19.2024 6.15518 19.2024 10.644C19.2024 12.116 18.791 13.5578 18.0235 14.8132L15.9186 18.2486C15.6754 18.6456 15.8073 19.165 16.2105 19.3978C16.5991 19.6223 17.0958 19.4961 17.3302 19.1135L19.4529 15.6491C20.3751 14.1407 20.8625 12.41 20.8625 10.644C20.8625 5.25741 16.3793 0.875 10.8687 0.875Z" stroke="#005551"/>
<path fill-rule="evenodd" clip-rule="evenodd" d="M10.8687 5.2625C8.21552 5.2625 6.05694 7.55877 6.05694 10.3812C6.05694 13.1857 8.18039 15.5 10.8687 15.5C13.5903 15.5 15.6806 13.1549 15.6806 10.3812C15.6806 7.55877 13.522 5.2625 10.8687 5.2625ZM10.8687 13.8051C9.09069 13.8051 7.65019 12.2676 7.65019 10.3812C7.65019 8.49961 9.09993 6.95735 10.8687 6.95735C12.6376 6.95735 14.082 8.49961 14.082 10.3812C14.082 12.2401 12.675 13.8051 10.8687 13.8051Z" stroke="#005551"/>
</svg>
