<svg width="21" height="22" viewBox="0 0 21 22" fill="none" xmlns="http://www.w3.org/2000/svg">
<path d="M20.9472 18.2641C20.8563 17.8276 20.4289 17.5474 19.9923 17.6383C19.5558 17.7292 19.2756 18.1567 19.3665 18.5931C19.4189 18.8446 19.3565 19.1023 19.1955 19.3003C19.1023 19.415 18.8944 19.6073 18.5498 19.6073H2.78304C2.43842 19.6073 2.2305 19.4149 2.13726 19.3003C1.97625 19.1023 1.91393 18.8446 1.96628 18.5931C2.80407 14.5691 6.35347 11.6295 10.4524 11.5304C10.5234 11.5331 10.5947 11.5345 10.6664 11.5345C10.7383 11.5345 10.8099 11.5331 10.8812 11.5304C13.7685 11.5996 16.4372 13.062 18.0534 15.4723C18.3016 15.8426 18.8031 15.9415 19.1735 15.6932C19.5438 15.445 19.6427 14.9435 19.3944 14.5732C18.0697 12.5976 16.1463 11.1611 13.9531 10.4392C15.2896 9.43704 16.1559 7.84029 16.1559 6.04503C16.1559 3.01814 13.6933 0.555542 10.6664 0.555542C7.63947 0.555542 5.17691 3.01814 5.17691 6.04503C5.17691 7.84138 6.04425 9.43898 7.38211 10.4411C6.15634 10.8447 5.00617 11.4726 3.99949 12.3006C2.15357 13.819 0.870117 15.9368 0.385629 18.2641C0.23378 18.9933 0.4157 19.7423 0.884648 20.3189C1.35129 20.8928 2.04325 21.2218 2.78304 21.2218H18.5497C19.2895 21.2218 19.9815 20.8928 20.4481 20.3189C20.9171 19.7423 21.099 18.9933 20.9472 18.2641ZM6.79146 6.04503C6.79146 3.90837 8.52973 2.1701 10.6664 2.1701C12.8031 2.1701 14.5413 3.90837 14.5413 6.04503C14.5413 8.11589 12.9084 9.81255 10.8625 9.91503C10.7973 9.91382 10.7319 9.91322 10.6664 9.91322C10.6012 9.91322 10.5361 9.91386 10.471 9.91507C8.42479 9.81299 6.79146 8.11618 6.79146 6.04503Z" fill="white"/>
</svg>
