<svg width="24" height="27" viewBox="0 0 24 27" fill="none" xmlns="http://www.w3.org/2000/svg">
<path d="M2.46659 25.5833V13.4396L1.99992 13.0167C1.75547 12.7951 1.58325 12.5635 1.48325 12.3219C1.38325 12.0802 1.33325 11.8184 1.33325 11.5364C1.33325 11.2545 1.38325 10.9877 1.48325 10.7359C1.58325 10.4842 1.75547 10.2476 1.99992 10.026L6.26659 6.12916H12.2666L17.4666 1.41666L19.9666 3.68228C20.8333 4.4677 21.4833 5.36891 21.9166 6.38593C22.3499 7.40294 22.5777 8.42499 22.5999 9.45207C22.5777 10.4792 22.3499 11.5012 21.9166 12.5182C21.4833 13.5352 20.8333 14.4364 19.9666 15.2219L17.1333 17.7896V25.5833H2.46659ZM4.46659 23.7708H15.1333V17.0344L18.5333 13.9531C19.2221 13.3288 19.7388 12.629 20.0833 11.8536C20.4277 11.0783 20.5999 10.2778 20.5999 9.45207C20.5999 8.62638 20.4277 7.83089 20.0833 7.06561C19.7388 6.30034 19.2221 5.60555 18.5333 4.98124L17.4666 3.98436L13.0999 7.94166H7.09992L5.99992 8.93853L8.46659 11.1739C9.08881 11.7378 9.55547 12.3672 9.86658 13.062C10.1777 13.7568 10.3333 14.4767 10.3333 15.2219C10.3333 15.9267 10.1999 16.6114 9.93325 17.276C9.66658 17.9406 9.25547 18.5448 8.69992 19.0885L4.46659 15.2521V23.7708Z" fill="white" stroke="#005551"/>
</svg>
