<svg width="33" height="36" viewBox="0 0 33 36" fill="none" xmlns="http://www.w3.org/2000/svg">
<rect width="33" height="35.7035" rx="16.5" fill="#005551"/>
<path d="M26.5708 5.0535H23.1548C22.5908 5.0535 22.1558 5.60631 22.1558 6.27758C22.1558 6.94885 22.6069 7.50166 23.1548 7.50166H26.5708V12.477C26.5708 13.168 27.022 13.7011 27.5698 13.7011C28.1177 13.7011 28.5688 13.1482 28.5688 12.477V7.52141C28.5688 6.15912 27.6665 5.0535 26.5547 5.0535H26.5708ZM5.41406 13.7208C5.97803 13.7208 6.41309 13.168 6.41309 12.4967V7.52141H9.87744C10.4414 7.52141 10.8765 6.9686 10.8765 6.29732C10.8765 5.62605 10.4253 5.07324 9.87744 5.07324H6.4292C5.31738 5.07324 4.41504 6.17886 4.41504 7.54115V12.5165C4.41504 13.2075 4.86621 13.7405 5.41406 13.7405V13.7208ZM9.87744 28.2519H6.4292V23.2765C6.4292 22.5855 5.97803 22.0525 5.43018 22.0525C4.88232 22.0525 4.43115 22.6053 4.43115 23.2765V28.2519C4.43115 29.6141 5.3335 30.7198 6.44531 30.7198H9.87744C10.4414 30.7198 10.8765 30.167 10.8765 29.4957C10.8765 28.8244 10.4253 28.2716 9.87744 28.2716V28.2519ZM27.5859 22.0525C27.022 22.0525 26.5869 22.6053 26.5869 23.2765V28.2519H23.1709C22.6069 28.2519 22.1719 28.8047 22.1719 29.4759C22.1719 30.1472 22.623 30.7 23.1709 30.7H26.5869C27.6987 30.7 28.6011 29.5944 28.6011 28.2321V23.2568C28.6011 22.5658 28.1499 22.0327 27.6021 22.0327L27.5859 22.0525Z" fill="#FF835D"/>
<path d="M13.4707 9.10089H10.103C8.99121 9.10089 8.08887 10.2065 8.08887 11.5688V14.6093C8.08887 15.9715 8.99121 17.0772 10.103 17.0772H13.4707C14.5825 17.0772 15.4849 15.9715 15.4849 14.6093V11.5688C15.4849 10.2065 14.5825 9.10089 13.4707 9.10089ZM13.4707 14.6093H10.103V11.5688H13.4707V14.6093ZM24.9111 24.2045V21.164C24.9111 19.8017 24.0088 18.6961 22.897 18.6961H19.5293C18.4175 18.6961 17.5151 19.8017 17.5151 21.164V24.2045C17.5151 25.5668 18.4175 26.6724 19.5293 26.6724H22.897C24.0088 26.6724 24.9111 25.5668 24.9111 24.2045ZM19.5293 21.164H22.897V24.2045H19.5293V21.164ZM17.5151 13.6418H21.5757V16.1098H17.5151V13.6418ZM17.5151 10.0881H24.9111V12.556H17.5151V10.0881ZM11.4243 19.6635H15.4849V22.1314H11.4243V19.6635ZM8.08887 23.2173H15.4849V25.6852H8.08887V23.2173Z" fill="white"/>
</svg>
