<svg width="32" height="28" viewBox="0 0 32 28" fill="none" xmlns="http://www.w3.org/2000/svg">
<g filter="url(#filter0_d_1028_1948)">
<path d="M6.46634 25.5833V13.4396L5.99967 13.0167C5.75523 12.7951 5.58301 12.5635 5.48301 12.3219C5.38301 12.0802 5.33301 11.8184 5.33301 11.5364C5.33301 11.2545 5.38301 10.9877 5.48301 10.7359C5.58301 10.4842 5.75523 10.2476 5.99967 10.026L10.2663 6.12916H16.2663L21.4663 1.41666L23.9663 3.68228C24.833 4.4677 25.483 5.36891 25.9163 6.38593C26.3497 7.40294 26.5775 8.42499 26.5997 9.45207C26.5775 10.4792 26.3497 11.5012 25.9163 12.5182C25.483 13.5352 24.833 14.4364 23.9663 15.2219L21.133 17.7896V25.5833H6.46634ZM8.46634 23.7708H19.133V17.0344L22.533 13.9531C23.2219 13.3288 23.7386 12.629 24.083 11.8536C24.4275 11.0783 24.5997 10.2778 24.5997 9.45207C24.5997 8.62638 24.4275 7.83089 24.083 7.06561C23.7386 6.30034 23.2219 5.60555 22.533 4.98124L21.4663 3.98436L17.0997 7.94166H11.0997L9.99967 8.93853L12.4663 11.1739C13.0886 11.7378 13.5552 12.3672 13.8663 13.062C14.1775 13.7568 14.333 14.4767 14.333 15.2219C14.333 15.9267 14.1997 16.6114 13.933 17.276C13.6663 17.9406 13.2552 18.5448 12.6997 19.0885L8.46634 15.2521V23.7708Z" fill="white"/>
<path d="M6.46634 25.5833V13.4396L5.99967 13.0167C5.75523 12.7951 5.58301 12.5635 5.48301 12.3219C5.38301 12.0802 5.33301 11.8184 5.33301 11.5364C5.33301 11.2545 5.38301 10.9877 5.48301 10.7359C5.58301 10.4842 5.75523 10.2476 5.99967 10.026L10.2663 6.12916H16.2663L21.4663 1.41666L23.9663 3.68228C24.833 4.4677 25.483 5.36891 25.9163 6.38593C26.3497 7.40294 26.5775 8.42499 26.5997 9.45207C26.5775 10.4792 26.3497 11.5012 25.9163 12.5182C25.483 13.5352 24.833 14.4364 23.9663 15.2219L21.133 17.7896V25.5833H6.46634ZM8.46634 23.7708H19.133V17.0344L22.533 13.9531C23.2219 13.3288 23.7386 12.629 24.083 11.8536C24.4275 11.0783 24.5997 10.2778 24.5997 9.45207C24.5997 8.62638 24.4275 7.83089 24.083 7.06561C23.7386 6.30034 23.2219 5.60555 22.533 4.98124L21.4663 3.98436L17.0997 7.94166H11.0997L9.99967 8.93853L12.4663 11.1739C13.0886 11.7378 13.5552 12.3672 13.8663 13.062C14.1775 13.7568 14.333 14.4767 14.333 15.2219C14.333 15.9267 14.1997 16.6114 13.933 17.276C13.6663 17.9406 13.2552 18.5448 12.6997 19.0885L8.46634 15.2521V23.7708Z" stroke="#005551"/>
</g>
<defs>
<filter id="filter0_d_1028_1948" x="0.833008" y="0.741882" width="30.2666" height="33.3414" filterUnits="userSpaceOnUse" color-interpolation-filters="sRGB">
<feFlood flood-opacity="0" result="BackgroundImageFix"/>
<feColorMatrix in="SourceAlpha" type="matrix" values="0 0 0 0 0 0 0 0 0 0 0 0 0 0 0 0 0 0 127 0" result="hardAlpha"/>
<feOffset dy="4"/>
<feGaussianBlur stdDeviation="2"/>
<feComposite in2="hardAlpha" operator="out"/>
<feColorMatrix type="matrix" values="0 0 0 0 0 0 0 0 0 0 0 0 0 0 0 0 0 0 0.25 0"/>
<feBlend mode="normal" in2="BackgroundImageFix" result="effect1_dropShadow_1028_1948"/>
<feBlend mode="normal" in="SourceGraphic" in2="effect1_dropShadow_1028_1948" result="shape"/>
</filter>
</defs>
</svg>
