<svg width="20" height="16" viewBox="0 0 20 16" fill="none" xmlns="http://www.w3.org/2000/svg">
<path d="M9.9998 0.0799866C9.11699 0.0799866 8.3998 0.725455 8.3998 1.51999C8.3998 2.18936 8.9123 2.74764 9.5998 2.90936V4.03999H6.0123C4.24043 4.03999 2.7998 5.33655 2.7998 6.93124V8.35999H0.799805V12.68H2.7998V15.92H17.1998V12.68H19.1998V8.35999H17.1998V6.93124C17.1998 5.33655 15.7592 4.03999 13.9873 4.03999H10.3998V2.90936C11.0889 2.74764 11.5998 2.18936 11.5998 1.51999C11.5998 0.725455 10.8826 0.0799866 9.9998 0.0799866ZM9.9998 0.799987C10.4404 0.799987 10.7998 1.12342 10.7998 1.51999C10.7998 1.91655 10.4404 2.23999 9.9998 2.23999C9.55918 2.23999 9.19981 1.91655 9.19981 1.51999C9.19981 1.12342 9.55918 0.799987 9.9998 0.799987ZM6.0123 4.75999H13.9873C15.317 4.75999 16.3998 5.73452 16.3998 6.93124V15.2H13.9998V12.32H5.9998V15.2H3.5998V6.93124C3.5998 5.73452 4.68262 4.75999 6.0123 4.75999ZM7.3998 6.91999C6.40762 6.91999 5.5998 7.64702 5.5998 8.53999C5.5998 9.43295 6.40762 10.16 7.3998 10.16C8.39199 10.16 9.19981 9.43295 9.19981 8.53999C9.19981 7.64702 8.39199 6.91999 7.3998 6.91999ZM12.5998 6.91999C11.6076 6.91999 10.7998 7.64702 10.7998 8.53999C10.7998 9.43295 11.6076 10.16 12.5998 10.16C13.592 10.16 14.3998 9.43295 14.3998 8.53999C14.3998 7.64702 13.592 6.91999 12.5998 6.91999ZM7.3998 7.63999C7.95137 7.63999 8.3998 8.04358 8.3998 8.53999C8.3998 9.03639 7.95137 9.43999 7.3998 9.43999C6.84824 9.43999 6.3998 9.03639 6.3998 8.53999C6.3998 8.04358 6.84824 7.63999 7.3998 7.63999ZM12.5998 7.63999C13.1514 7.63999 13.5998 8.04358 13.5998 8.53999C13.5998 9.03639 13.1514 9.43999 12.5998 9.43999C12.0482 9.43999 11.5998 9.03639 11.5998 8.53999C11.5998 8.04358 12.0482 7.63999 12.5998 7.63999ZM1.5998 9.07999H2.7998V11.96H1.5998V9.07999ZM17.1998 9.07999H18.3998V11.96H17.1998V9.07999ZM6.7998 13.04H8.3998V15.2H6.7998V13.04ZM9.19981 13.04H10.7998V15.2H9.19981V13.04ZM11.5998 13.04H13.1998V15.2H11.5998V13.04Z" fill="#005551"/>
</svg>
